<svg width="100" height="100" viewBox="0 0 100 100" fill="none" xmlns="http://www.w3.org/2000/svg">
<mask id="mask0_1160_141885" style="mask-type:alpha" maskUnits="userSpaceOnUse" x="0" y="0" width="100" height="100">
<circle cx="50" cy="50" r="50" fill="#E8E8E8"/>
</mask>
<g mask="url(#mask0_1160_141885)">
<rect y="-2" width="100" height="102" fill="#E8E8E8"/>
<path fill-rule="evenodd" clip-rule="evenodd" d="M16.6379 26H86.59L88.9672 92.011C89.1244 96.3759 85.6285 100 81.2607 100H23.7529C19.4668 100 16.0031 96.505 16.0417 92.2191L16.6379 26Z" fill="#0271CE"/>
<path fill-rule="evenodd" clip-rule="evenodd" d="M12.6648 26H86.5881L88.9652 92.011C89.1224 96.3759 85.6265 100 81.2588 100H17.9941C13.6264 100 10.1305 96.3759 10.2877 92.011L12.6648 26Z" fill="#0271CE"/>
<path fill-rule="evenodd" clip-rule="evenodd" d="M12.6648 26H86.5881L88.9652 92.011C89.1224 96.3759 85.6265 100 81.2588 100H17.9941C13.6264 100 10.1305 96.3759 10.2877 92.011L12.6648 26Z" fill="#0271CE"/>
<path fill-rule="evenodd" clip-rule="evenodd" d="M38.0338 54.3223C37.3012 54.3223 36.7193 54.7436 36.7193 55.2536L37.1719 60.4537C37.215 60.7641 37.5921 61.008 38.0338 61.008C38.4864 61.008 38.8635 60.7641 38.9174 60.4537L39.3591 55.2536C39.3591 54.7436 38.7773 54.3223 38.0338 54.3223ZM31.128 58.5793C30.697 58.3243 30.0506 58.6347 29.6842 59.2889C29.3071 59.943 29.3718 60.6748 29.8135 60.9298L34.4036 63.1362C34.6945 63.236 35.0824 63.0254 35.3086 62.6262C35.5349 62.2271 35.5134 61.7725 35.2763 61.5729L31.128 58.5793ZM46.2783 60.9298C46.7093 60.6748 46.7739 59.943 46.4076 59.2889C46.0305 58.6347 45.384 58.3243 44.953 58.5793L40.8047 61.5729C40.5677 61.7725 40.5461 62.2271 40.7724 62.6262C40.9987 63.0254 41.3866 63.236 41.6775 63.1362L46.2783 60.9298ZM29.8135 67.5707C29.3718 67.8368 29.3071 68.5686 29.6842 69.2227C30.0506 69.8769 30.697 70.1873 31.128 69.9323L35.2763 66.9387C35.5134 66.728 35.5349 66.2734 35.3086 65.8743C35.0824 65.4751 34.6945 65.2645 34.4036 65.3754L29.8135 67.5707ZM41.6775 65.3754C41.3866 65.2645 40.9987 65.4751 40.7724 65.8743C40.5461 66.2734 40.5677 66.728 40.8047 66.9387L44.953 69.9323C45.384 70.1873 46.0305 69.8769 46.4076 69.2227C46.7739 68.5686 46.7093 67.8368 46.2783 67.5707L41.6775 65.3754ZM38.0446 67.5054C37.5921 67.5054 37.215 67.7383 37.1719 68.0487L36.7193 73.2488C36.7193 73.7699 37.3012 74.1912 38.0338 74.1912C38.7773 74.1912 39.3591 73.7699 39.3591 73.2488L38.9174 68.0487C38.8635 67.7383 38.4864 67.5054 38.0446 67.5054Z" fill="#FEBC11"/>
<path fill-rule="evenodd" clip-rule="evenodd" d="M66.6025 26H86.5889L88.966 92.011C89.1232 96.3759 85.6273 100 81.2596 100H74.314C70.0551 100 66.6025 96.5475 66.6025 92.2886V26Z" fill="#0065B8"/>
<mask id="mask1_1160_141885" style="mask-type:luminance" maskUnits="userSpaceOnUse" x="66" y="26" width="23" height="74">
<path fill-rule="evenodd" clip-rule="evenodd" d="M66.6025 26H86.5889L88.966 92.011C89.1232 96.3759 85.6273 100 81.2596 100H74.314C70.0551 100 66.6025 96.5475 66.6025 92.2886V26Z" fill="white"/>
</mask>
<g mask="url(#mask1_1160_141885)">
<path fill-rule="evenodd" clip-rule="evenodd" d="M89.0332 100.002L70.6772 100.002L66.8262 96.707L75.8339 88.8908L89.0332 100.002Z" fill="#0056A8"/>
<path fill-rule="evenodd" clip-rule="evenodd" d="M88.6797 24.8398L70.3237 24.8398L66.4727 28.1348L75.4804 35.951L88.6797 24.8398Z" fill="#0056A8"/>
</g>
<path fill-rule="evenodd" clip-rule="evenodd" d="M66.2499 26H76.7718L77.9279 100H71.8937C67.5404 100 64.05 96.3989 64.186 92.0477L66.2499 26Z" fill="#0056A8"/>
</g>
</svg>
